<svg width="800" height="310" viewBox="0 0 800 310" xmlns="http://www.w3.org/2000/svg">
  <rect width="800" height="310" rx="10" fill="#0D1117"/>
  <rect width="800" height="310" rx="10" fill="none" stroke="#7C3AED" stroke-width="0.5" stroke-opacity="0.3"/>

  <!-- Title -->
  <text x="24" y="28" font-family="monospace" font-size="10" fill="#7C3AED" letter-spacing="2">CORE STACK</text>
  <line x1="24" y1="36" x2="776" y2="36" stroke="#7C3AED" stroke-width="0.5" stroke-opacity="0.3"/>

  <!-- Column guides (3 cols): 0-260, 267-527, 534-800 -->
  <!-- Col dividers -->
  <line x1="267" y1="44" x2="267" y2="296" stroke="#7C3AED" stroke-width="0.5" stroke-opacity="0.15"/>
  <line x1="534" y1="44" x2="534" y2="296" stroke="#7C3AED" stroke-width="0.5" stroke-opacity="0.15"/>
  <!-- Row divider -->
  <line x1="24" y1="168" x2="776" y2="168" stroke="#7C3AED" stroke-width="0.5" stroke-opacity="0.15"/>

  <!-- === COL 1 ROW 1: Orchestration === -->
  <text x="36" y="62" font-family="monospace" font-size="11" fill="#a5b4fc" font-weight="bold">Orchestration</text>
  <!-- LangGraph -->
  <rect x="36" y="74" width="8" height="8" rx="1" fill="#7C3AED"/>
  <text x="50" y="83" font-family="monospace" font-size="11" fill="#c7d2fe">LangGraph</text>
  <rect x="140" y="75" width="50" height="6" rx="2" fill="#161B26"/>
  <rect x="140" y="75" width="50" height="6" rx="2" fill="#7C3AED"/>
  <!-- LangChain -->
  <rect x="36" y="96" width="8" height="8" rx="1" fill="#7C3AED"/>
  <text x="50" y="105" font-family="monospace" font-size="11" fill="#c7d2fe">LangChain</text>
  <rect x="140" y="97" width="50" height="6" rx="2" fill="#161B26"/>
  <rect x="140" y="97" width="50" height="6" rx="2" fill="#7C3AED"/>
  <!-- MCP -->
  <rect x="36" y="118" width="8" height="8" rx="1" fill="#7C3AED" fill-opacity="0.7"/>
  <text x="50" y="127" font-family="monospace" font-size="11" fill="#c7d2fe">MCP</text>
  <rect x="140" y="119" width="50" height="6" rx="2" fill="#161B26"/>
  <rect x="140" y="119" width="40" height="6" rx="2" fill="#7C3AED"/>

  <!-- === COL 2 ROW 1: LLM APIs === -->
  <text x="283" y="62" font-family="monospace" font-size="11" fill="#a5b4fc" font-weight="bold">LLM APIs</text>
  <rect x="283" y="74" width="8" height="8" rx="1" fill="#06B6D4"/>
  <text x="297" y="83" font-family="monospace" font-size="11" fill="#c7d2fe">OpenAI</text>
  <rect x="387" y="75" width="50" height="6" rx="2" fill="#161B26"/>
  <rect x="387" y="75" width="50" height="6" rx="2" fill="#06B6D4"/>
  <rect x="283" y="96" width="8" height="8" rx="1" fill="#06B6D4"/>
  <text x="297" y="105" font-family="monospace" font-size="11" fill="#c7d2fe">Anthropic</text>
  <rect x="387" y="97" width="50" height="6" rx="2" fill="#161B26"/>
  <rect x="387" y="97" width="50" height="6" rx="2" fill="#06B6D4"/>
  <rect x="283" y="118" width="8" height="8" rx="1" fill="#06B6D4" fill-opacity="0.7"/>
  <text x="297" y="127" font-family="monospace" font-size="11" fill="#c7d2fe">Gemini</text>
  <rect x="387" y="119" width="50" height="6" rx="2" fill="#161B26"/>
  <rect x="387" y="119" width="40" height="6" rx="2" fill="#06B6D4"/>

  <!-- === COL 3 ROW 1: Vector & Search === -->
  <text x="550" y="62" font-family="monospace" font-size="11" fill="#a5b4fc" font-weight="bold">Vector &amp; Search</text>
  <rect x="550" y="74" width="8" height="8" rx="1" fill="#7C3AED"/>
  <text x="564" y="83" font-family="monospace" font-size="11" fill="#c7d2fe">Qdrant</text>
  <rect x="654" y="75" width="50" height="6" rx="2" fill="#161B26"/>
  <rect x="654" y="75" width="50" height="6" rx="2" fill="#7C3AED"/>
  <rect x="550" y="96" width="8" height="8" rx="1" fill="#7C3AED"/>
  <text x="564" y="105" font-family="monospace" font-size="11" fill="#c7d2fe">ChromaDB</text>
  <rect x="654" y="97" width="50" height="6" rx="2" fill="#161B26"/>
  <rect x="654" y="97" width="50" height="6" rx="2" fill="#7C3AED"/>
  <rect x="550" y="118" width="8" height="8" rx="1" fill="#7C3AED" fill-opacity="0.7"/>
  <text x="564" y="127" font-family="monospace" font-size="11" fill="#c7d2fe">FAISS</text>
  <rect x="654" y="119" width="50" height="6" rx="2" fill="#161B26"/>
  <rect x="654" y="119" width="40" height="6" rx="2" fill="#7C3AED"/>

  <!-- === COL 1 ROW 2: Infrastructure === -->
  <text x="36" y="190" font-family="monospace" font-size="11" fill="#a5b4fc" font-weight="bold">Infrastructure</text>
  <rect x="36" y="202" width="8" height="8" rx="1" fill="#06B6D4" fill-opacity="0.8"/>
  <text x="50" y="211" font-family="monospace" font-size="11" fill="#c7d2fe">Kubernetes</text>
  <rect x="140" y="203" width="50" height="6" rx="2" fill="#161B26"/>
  <rect x="140" y="203" width="40" height="6" rx="2" fill="#06B6D4"/>
  <rect x="36" y="224" width="8" height="8" rx="1" fill="#06B6D4" fill-opacity="0.8"/>
  <text x="50" y="233" font-family="monospace" font-size="11" fill="#c7d2fe">Docker</text>
  <rect x="140" y="225" width="50" height="6" rx="2" fill="#161B26"/>
  <rect x="140" y="225" width="40" height="6" rx="2" fill="#06B6D4"/>
  <rect x="36" y="246" width="8" height="8" rx="1" fill="#06B6D4"/>
  <text x="50" y="255" font-family="monospace" font-size="11" fill="#c7d2fe">FastAPI</text>
  <rect x="140" y="247" width="50" height="6" rx="2" fill="#161B26"/>
  <rect x="140" y="247" width="50" height="6" rx="2" fill="#06B6D4"/>

  <!-- === COL 2 ROW 2: Cloud & MLOps === -->
  <text x="283" y="190" font-family="monospace" font-size="11" fill="#a5b4fc" font-weight="bold">Cloud &amp; MLOps</text>
  <rect x="283" y="202" width="8" height="8" rx="1" fill="#F59E0B" fill-opacity="0.9"/>
  <text x="297" y="211" font-family="monospace" font-size="11" fill="#c7d2fe">AWS / GCP</text>
  <rect x="387" y="203" width="50" height="6" rx="2" fill="#161B26"/>
  <rect x="387" y="203" width="40" height="6" rx="2" fill="#F59E0B"/>
  <rect x="283" y="224" width="8" height="8" rx="1" fill="#F59E0B" fill-opacity="0.9"/>
  <text x="297" y="233" font-family="monospace" font-size="11" fill="#c7d2fe">LangFuse</text>
  <rect x="387" y="225" width="50" height="6" rx="2" fill="#161B26"/>
  <rect x="387" y="225" width="40" height="6" rx="2" fill="#F59E0B"/>
  <rect x="283" y="246" width="8" height="8" rx="1" fill="#F59E0B" fill-opacity="0.9"/>
  <text x="297" y="255" font-family="monospace" font-size="11" fill="#c7d2fe">OpenAI Evals</text>
  <rect x="387" y="247" width="50" height="6" rx="2" fill="#161B26"/>
  <rect x="387" y="247" width="40" height="6" rx="2" fill="#F59E0B"/>

  <!-- === COL 3 ROW 2: Databases === -->
  <text x="550" y="190" font-family="monospace" font-size="11" fill="#a5b4fc" font-weight="bold">Databases</text>
  <rect x="550" y="202" width="8" height="8" rx="1" fill="#a5b4fc" fill-opacity="0.8"/>
  <text x="564" y="211" font-family="monospace" font-size="11" fill="#c7d2fe">PostgreSQL</text>
  <rect x="654" y="203" width="50" height="6" rx="2" fill="#161B26"/>
  <rect x="654" y="203" width="40" height="6" rx="2" fill="#a5b4fc"/>
  <rect x="550" y="224" width="8" height="8" rx="1" fill="#a5b4fc" fill-opacity="0.8"/>
  <text x="564" y="233" font-family="monospace" font-size="11" fill="#c7d2fe">MongoDB</text>
  <rect x="654" y="225" width="50" height="6" rx="2" fill="#161B26"/>
  <rect x="654" y="225" width="40" height="6" rx="2" fill="#a5b4fc"/>
  <rect x="550" y="246" width="8" height="8" rx="1" fill="#a5b4fc" fill-opacity="0.6"/>
  <text x="564" y="255" font-family="monospace" font-size="11" fill="#c7d2fe">Neo4j</text>
  <rect x="654" y="247" width="50" height="6" rx="2" fill="#161B26"/>
  <rect x="654" y="247" width="30" height="6" rx="2" fill="#a5b4fc"/>

  <!-- Legend -->
  <rect x="36" y="276" width="8" height="8" rx="1" fill="#7C3AED"/>
  <text x="50" y="285" font-family="monospace" font-size="9" fill="#64748B">Expert</text>
  <rect x="110" y="276" width="8" height="8" rx="1" fill="#06B6D4"/>
  <text x="124" y="285" font-family="monospace" font-size="9" fill="#64748B">Advanced</text>
  <rect x="200" y="276" width="8" height="8" rx="1" fill="#a5b4fc"/>
  <text x="214" y="285" font-family="monospace" font-size="9" fill="#64748B">Proficient</text>
  <rect x="294" y="276" width="8" height="8" rx="1" fill="#F59E0B"/>
  <text x="308" y="285" font-family="monospace" font-size="9" fill="#64748B">Experienced</text>
</svg>
